<mxfile host="app.diagrams.net" modified="2023-07-03T07:15:28.652Z" agent="Mozilla/5.0 (Windows NT 10.0; Win64; x64) AppleWebKit/537.36 (KHTML, like Gecko) Chrome/113.0.0.0 Safari/537.36" etag="D6CCJCC0gq6shKKH2Hc3" version="21.5.2" type="github">
  <diagram name="Page-1" id="uT_MpIHSyIODS6eeE_yH">
    <mxGraphModel dx="2074" dy="1068" grid="1" gridSize="10" guides="1" tooltips="1" connect="1" arrows="1" fold="1" page="1" pageScale="1" pageWidth="827" pageHeight="1169" math="0" shadow="0">
      <root>
        <mxCell id="0" />
        <mxCell id="1" parent="0" />
        <mxCell id="iTEmnOEeSbmJaYnIYAKQ-1" value="Web GUI" style="rounded=0;whiteSpace=wrap;html=1;" vertex="1" parent="1">
          <mxGeometry x="310" y="120" width="120" height="60" as="geometry" />
        </mxCell>
        <mxCell id="iTEmnOEeSbmJaYnIYAKQ-2" value="Upload log file" style="rounded=0;whiteSpace=wrap;html=1;" vertex="1" parent="1">
          <mxGeometry x="310" y="237" width="120" height="60" as="geometry" />
        </mxCell>
        <mxCell id="iTEmnOEeSbmJaYnIYAKQ-3" value="Split into small files&amp;nbsp;" style="rounded=0;whiteSpace=wrap;html=1;" vertex="1" parent="1">
          <mxGeometry x="310" y="350" width="120" height="60" as="geometry" />
        </mxCell>
        <mxCell id="iTEmnOEeSbmJaYnIYAKQ-4" value="Process one small file" style="rounded=0;whiteSpace=wrap;html=1;" vertex="1" parent="1">
          <mxGeometry x="145" y="460" width="120" height="60" as="geometry" />
        </mxCell>
        <mxCell id="iTEmnOEeSbmJaYnIYAKQ-5" value="Process one small file" style="rounded=0;whiteSpace=wrap;html=1;" vertex="1" parent="1">
          <mxGeometry x="309" y="460" width="120" height="60" as="geometry" />
        </mxCell>
        <mxCell id="iTEmnOEeSbmJaYnIYAKQ-6" value="Process one small file" style="rounded=0;whiteSpace=wrap;html=1;" vertex="1" parent="1">
          <mxGeometry x="490" y="460" width="120" height="60" as="geometry" />
        </mxCell>
        <mxCell id="iTEmnOEeSbmJaYnIYAKQ-7" value="..." style="rounded=0;whiteSpace=wrap;html=1;" vertex="1" parent="1">
          <mxGeometry x="660" y="460" width="120" height="60" as="geometry" />
        </mxCell>
        <mxCell id="iTEmnOEeSbmJaYnIYAKQ-8" value="" style="endArrow=classic;html=1;rounded=0;exitX=0.5;exitY=1;exitDx=0;exitDy=0;" edge="1" parent="1" source="iTEmnOEeSbmJaYnIYAKQ-1" target="iTEmnOEeSbmJaYnIYAKQ-2">
          <mxGeometry width="50" height="50" relative="1" as="geometry">
            <mxPoint x="570" y="230" as="sourcePoint" />
            <mxPoint x="620" y="180" as="targetPoint" />
          </mxGeometry>
        </mxCell>
        <mxCell id="iTEmnOEeSbmJaYnIYAKQ-9" value="" style="endArrow=classic;html=1;rounded=0;entryX=0.5;entryY=0;entryDx=0;entryDy=0;exitX=0.5;exitY=1;exitDx=0;exitDy=0;" edge="1" parent="1" source="iTEmnOEeSbmJaYnIYAKQ-2" target="iTEmnOEeSbmJaYnIYAKQ-3">
          <mxGeometry width="50" height="50" relative="1" as="geometry">
            <mxPoint x="370" y="310" as="sourcePoint" />
            <mxPoint x="520" y="280" as="targetPoint" />
          </mxGeometry>
        </mxCell>
        <mxCell id="iTEmnOEeSbmJaYnIYAKQ-10" value="Concatenate into result in markdown" style="rounded=0;whiteSpace=wrap;html=1;" vertex="1" parent="1">
          <mxGeometry x="296" y="585" width="120" height="60" as="geometry" />
        </mxCell>
        <mxCell id="iTEmnOEeSbmJaYnIYAKQ-11" value="" style="endArrow=classic;html=1;rounded=0;entryX=0.442;entryY=-0.05;entryDx=0;entryDy=0;entryPerimeter=0;" edge="1" parent="1" target="iTEmnOEeSbmJaYnIYAKQ-4">
          <mxGeometry width="50" height="50" relative="1" as="geometry">
            <mxPoint x="370" y="410" as="sourcePoint" />
            <mxPoint x="210" y="460" as="targetPoint" />
          </mxGeometry>
        </mxCell>
        <mxCell id="iTEmnOEeSbmJaYnIYAKQ-12" value="" style="endArrow=classic;html=1;rounded=0;entryX=0.5;entryY=0;entryDx=0;entryDy=0;" edge="1" parent="1" source="iTEmnOEeSbmJaYnIYAKQ-3" target="iTEmnOEeSbmJaYnIYAKQ-5">
          <mxGeometry width="50" height="50" relative="1" as="geometry">
            <mxPoint x="414.00000000000006" y="418.02" as="sourcePoint" />
            <mxPoint x="612.04" y="380" as="targetPoint" />
          </mxGeometry>
        </mxCell>
        <mxCell id="iTEmnOEeSbmJaYnIYAKQ-13" value="" style="endArrow=classic;html=1;rounded=0;exitX=0.558;exitY=1.033;exitDx=0;exitDy=0;exitPerimeter=0;entryX=0.5;entryY=0;entryDx=0;entryDy=0;" edge="1" parent="1" source="iTEmnOEeSbmJaYnIYAKQ-3" target="iTEmnOEeSbmJaYnIYAKQ-7">
          <mxGeometry width="50" height="50" relative="1" as="geometry">
            <mxPoint x="460.00000000000006" y="408.02" as="sourcePoint" />
            <mxPoint x="797.04" y="460" as="targetPoint" />
            <Array as="points" />
          </mxGeometry>
        </mxCell>
        <mxCell id="iTEmnOEeSbmJaYnIYAKQ-14" value="" style="endArrow=classic;html=1;rounded=0;exitX=0.5;exitY=1;exitDx=0;exitDy=0;entryX=0.6;entryY=0;entryDx=0;entryDy=0;entryPerimeter=0;" edge="1" parent="1" source="iTEmnOEeSbmJaYnIYAKQ-3" target="iTEmnOEeSbmJaYnIYAKQ-6">
          <mxGeometry width="50" height="50" relative="1" as="geometry">
            <mxPoint x="570" y="380" as="sourcePoint" />
            <mxPoint x="620" y="330" as="targetPoint" />
          </mxGeometry>
        </mxCell>
        <mxCell id="iTEmnOEeSbmJaYnIYAKQ-15" value="" style="endArrow=classic;html=1;rounded=0;exitX=0.5;exitY=1;exitDx=0;exitDy=0;entryX=0.592;entryY=0.033;entryDx=0;entryDy=0;entryPerimeter=0;" edge="1" parent="1" source="iTEmnOEeSbmJaYnIYAKQ-4" target="iTEmnOEeSbmJaYnIYAKQ-10">
          <mxGeometry width="50" height="50" relative="1" as="geometry">
            <mxPoint x="170" y="690" as="sourcePoint" />
            <mxPoint x="220" y="640" as="targetPoint" />
          </mxGeometry>
        </mxCell>
        <mxCell id="iTEmnOEeSbmJaYnIYAKQ-16" value="" style="endArrow=classic;html=1;rounded=0;exitX=0.5;exitY=1;exitDx=0;exitDy=0;entryX=0.608;entryY=0.05;entryDx=0;entryDy=0;entryPerimeter=0;" edge="1" parent="1" source="iTEmnOEeSbmJaYnIYAKQ-5" target="iTEmnOEeSbmJaYnIYAKQ-10">
          <mxGeometry width="50" height="50" relative="1" as="geometry">
            <mxPoint x="610" y="610" as="sourcePoint" />
            <mxPoint x="660" y="560" as="targetPoint" />
          </mxGeometry>
        </mxCell>
        <mxCell id="iTEmnOEeSbmJaYnIYAKQ-17" value="" style="endArrow=classic;html=1;rounded=0;exitX=0.5;exitY=1;exitDx=0;exitDy=0;" edge="1" parent="1" source="iTEmnOEeSbmJaYnIYAKQ-6">
          <mxGeometry width="50" height="50" relative="1" as="geometry">
            <mxPoint x="570" y="640" as="sourcePoint" />
            <mxPoint x="370" y="580" as="targetPoint" />
          </mxGeometry>
        </mxCell>
        <mxCell id="iTEmnOEeSbmJaYnIYAKQ-18" value="" style="endArrow=classic;html=1;rounded=0;exitX=0.5;exitY=1;exitDx=0;exitDy=0;entryX=0.75;entryY=0;entryDx=0;entryDy=0;" edge="1" parent="1">
          <mxGeometry width="50" height="50" relative="1" as="geometry">
            <mxPoint x="694" y="520" as="sourcePoint" />
            <mxPoint x="360" y="585" as="targetPoint" />
          </mxGeometry>
        </mxCell>
        <mxCell id="iTEmnOEeSbmJaYnIYAKQ-19" value="Convert markdown into html" style="rounded=0;whiteSpace=wrap;html=1;" vertex="1" parent="1">
          <mxGeometry x="296" y="810" width="120" height="60" as="geometry" />
        </mxCell>
        <mxCell id="iTEmnOEeSbmJaYnIYAKQ-20" value="" style="endArrow=classic;html=1;rounded=0;exitX=0.5;exitY=1;exitDx=0;exitDy=0;entryX=0.5;entryY=0;entryDx=0;entryDy=0;" edge="1" parent="1" source="iTEmnOEeSbmJaYnIYAKQ-10" target="iTEmnOEeSbmJaYnIYAKQ-23">
          <mxGeometry width="50" height="50" relative="1" as="geometry">
            <mxPoint x="357" y="650" as="sourcePoint" />
            <mxPoint x="356" y="690" as="targetPoint" />
          </mxGeometry>
        </mxCell>
        <mxCell id="iTEmnOEeSbmJaYnIYAKQ-21" value="Return html to user" style="rounded=0;whiteSpace=wrap;html=1;" vertex="1" parent="1">
          <mxGeometry x="296" y="920" width="120" height="60" as="geometry" />
        </mxCell>
        <mxCell id="iTEmnOEeSbmJaYnIYAKQ-22" value="" style="endArrow=classic;html=1;rounded=0;exitX=0.5;exitY=1;exitDx=0;exitDy=0;" edge="1" parent="1" source="iTEmnOEeSbmJaYnIYAKQ-19" target="iTEmnOEeSbmJaYnIYAKQ-21">
          <mxGeometry width="50" height="50" relative="1" as="geometry">
            <mxPoint x="590" y="814" as="sourcePoint" />
            <mxPoint x="640" y="764" as="targetPoint" />
          </mxGeometry>
        </mxCell>
        <mxCell id="iTEmnOEeSbmJaYnIYAKQ-23" value="Remove dup from result&amp;nbsp;" style="rounded=0;whiteSpace=wrap;html=1;" vertex="1" parent="1">
          <mxGeometry x="296" y="700" width="120" height="60" as="geometry" />
        </mxCell>
        <mxCell id="iTEmnOEeSbmJaYnIYAKQ-24" value="" style="endArrow=classic;html=1;rounded=0;exitX=0.5;exitY=1;exitDx=0;exitDy=0;entryX=0.5;entryY=0;entryDx=0;entryDy=0;" edge="1" parent="1" source="iTEmnOEeSbmJaYnIYAKQ-23" target="iTEmnOEeSbmJaYnIYAKQ-19">
          <mxGeometry width="50" height="50" relative="1" as="geometry">
            <mxPoint x="590" y="770" as="sourcePoint" />
            <mxPoint x="640" y="720" as="targetPoint" />
          </mxGeometry>
        </mxCell>
      </root>
    </mxGraphModel>
  </diagram>
</mxfile>
